<svg width="20" height="24" viewBox="0 0 20 24" fill="none" xmlns="http://www.w3.org/2000/svg">
<g id="apple-logo">
<path id="Shape" fill-rule="evenodd" clip-rule="evenodd" d="M11.3559 5.26752C10.9263 5.45337 10.48 5.55066 10.0159 5.53724C9.92773 5.53589 9.89383 5.5104 9.8889 5.40909C9.81678 4.453 10.0522 3.5781 10.4757 2.75419C11.1993 1.34724 12.3001 0.478378 13.7307 0.0966148C13.8531 0.0630756 13.9791 0.0453837 14.1121 0.0266985C14.1707 0.0184708 14.2306 0.0100506 14.2923 0C14.2945 0.0640127 14.2971 0.124526 14.2997 0.182932C14.3037 0.271447 14.3074 0.355119 14.3089 0.438792C14.3397 2.16444 13.3153 4.4208 11.3559 5.26752ZM19.5553 17.7545C19.5803 17.6804 19.6049 17.6073 19.6298 17.5362C17.7339 16.5823 16.5775 15.1126 16.4338 12.9401C16.2914 10.7689 17.2717 9.16547 18.9935 7.95162C18.9816 7.93298 18.9645 7.90799 18.9482 7.88411L18.9416 7.87452C18.2588 6.90562 17.3547 6.24036 16.2435 5.8644C15.4595 5.59898 14.6539 5.49049 13.8281 5.55804C13.2762 5.60239 12.7473 5.75932 12.2271 5.95106C11.7197 6.14142 11.2137 6.33588 10.7084 6.53103C10.2516 6.70775 9.79752 6.70775 9.34143 6.53444C8.84621 6.3468 8.35166 6.1578 7.85847 5.96675C6.92132 5.60171 5.96529 5.50618 4.98227 5.74022C3.34817 6.12709 2.10607 7.06529 1.2256 8.49748C0.523924 9.63695 0.218964 10.9013 0.141375 12.2291C0.0752557 13.3365 0.183206 14.4289 0.408552 15.5124C0.931436 18.0322 2.01431 20.2818 3.62749 22.2715C3.96821 22.6904 4.33254 23.0862 4.76637 23.411C5.11586 23.6723 5.49233 23.8749 5.92278 23.9561C6.41598 24.0503 6.90041 23.9862 7.36729 23.8279C7.64809 23.7322 7.92265 23.6184 8.19716 23.5046C8.31642 23.4551 8.43567 23.4057 8.55542 23.3577C9.65179 22.9197 10.7603 22.8658 11.8749 23.2752C12.0973 23.3569 12.3155 23.4513 12.5337 23.5456C12.6523 23.5969 12.771 23.6483 12.8903 23.6975C13.3579 23.8899 13.843 23.9827 14.3483 23.9664C15.021 23.9425 15.6025 23.6812 16.1079 23.2486C16.3636 23.0309 16.6112 22.7962 16.8237 22.5369C17.9248 21.205 18.8323 19.7517 19.4301 18.1148C19.4745 17.9947 19.5154 17.8733 19.5553 17.7545Z" fill="white"/>
</g>
</svg>
