<svg width="269" height="200" viewBox="0 0 269 200" fill="none" xmlns="http://www.w3.org/2000/svg">
<path d="M97.6858 19.2681H41.0215C39.3646 19.2681 38.0215 20.6113 38.0215 22.2681V110.423C38.0215 112.08 39.3646 113.423 41.0215 113.423H97.6858C99.3427 113.423 100.686 112.08 100.686 110.423V22.2681C100.686 20.6113 99.3427 19.2681 97.6858 19.2681Z" fill="url(#paint0_linear_430_2780)"/>
<path d="M224.202 0.0415955H108.508C106.851 0.0415955 105.508 1.38473 105.508 3.04159V148.904C105.508 150.561 106.851 151.904 108.508 151.904H224.202C225.859 151.904 227.202 150.561 227.202 148.904V3.0416C227.202 1.38474 225.859 0.0415955 224.202 0.0415955Z" fill="url(#paint1_linear_430_2780)"/>
<path d="M236.795 40.94H161.715C160.058 40.94 158.715 42.2832 158.715 43.94V137.661C158.715 139.318 160.058 140.661 161.715 140.661H236.795C238.452 140.661 239.795 139.318 239.795 137.661V43.94C239.795 42.2832 238.452 40.94 236.795 40.94Z" fill="url(#paint2_linear_430_2780)"/>
<path d="M175.119 106.652L173.271 129.526C178.076 130.755 184.836 131.95 192.943 131.715C201.361 131.472 208.264 129.772 213.072 128.192C212.321 123.537 210.524 116.173 205.782 108.359C202.026 102.173 197.727 97.8578 194.504 95.1007C193.743 96.8464 192.046 100.068 188.585 102.724C183.001 107.016 176.823 106.777 175.119 106.652Z" fill="url(#paint3_linear_430_2780)"/>
<path d="M174.988 104.795L175.123 106.652C176.708 106.818 182.001 107.168 187.273 103.787C191.904 100.816 193.86 96.6662 194.508 95.1041C194.632 94.9067 194.615 94.6573 194.473 94.4945C194.293 94.2867 194.009 94.3352 193.995 94.3387C193.016 95.9943 190.506 99.735 185.67 102.312C181.129 104.726 176.913 104.854 174.988 104.795Z" fill="#056663"/>
<path d="M152.457 86.1403C156.078 90.8716 159.615 92.7073 162.177 93.5074C165.621 94.5881 168.591 94.2036 171.433 96.8256C172.17 97.5045 173.673 98.8899 174.316 101.082C174.316 101.082 174.524 101.789 174.988 104.792C176.951 104.847 181.7 104.719 186.619 101.768C190.748 99.2882 192.991 96.022 193.992 94.3352C193.237 92.9325 192.213 90.882 191.05 88.3709C189.54 85.1082 187.948 81.2808 187.633 79.026C187.003 74.5199 186.961 72.1646 186.961 72.1646L168.813 68.8845L158.179 71.3645L152.457 86.1403Z" fill="url(#paint4_linear_430_2780)"/>
<path d="M144.928 24.3112C144.928 24.3112 140.137 22.6659 137.316 25.0558C134.495 27.4457 133.899 30.66 133.948 32.5442C133.993 34.4284 137.828 45.4046 139.708 48.3833C141.587 51.362 144.841 56.225 145.665 58.3032C146.489 60.3813 146.918 62.0265 146.918 62.0265C146.932 60.8108 146.839 59.2937 146.465 57.5931C146.202 56.3947 145.856 55.3487 145.506 54.4689C146.607 56.0449 148.514 58.4417 148.995 61.8707C149.542 65.7915 149.701 71.1636 149.701 71.1636L155.814 68.8811L160.044 56.0934L150.761 34.7401L147.656 22.9084L144.928 24.3112Z" fill="#1A1B15"/>
<path d="M155.245 63.2547C155.245 63.2547 157.198 58.1681 155.774 54.2432C154.35 50.3183 153.292 50 153.292 50C153.292 50 155.172 48.1183 156.246 47.043C157.319 45.9677 159.199 43.8172 159.199 43.8172L168.271 51.0019L169.132 55.2284L168.036 63.4409H159.925L155.245 63.2547Z" fill="url(#paint5_linear_430_2780)"/>
<path d="M97.5291 96.1017L98.0725 102.634C110.991 109.277 123.909 115.917 136.831 122.56C138.019 119.651 139.826 113.887 138.109 107.369C137.738 105.97 137.254 104.712 136.728 103.607C135.326 102.586 133.92 101.564 132.518 100.542L106.823 96.9122L97.5291 96.1017Z" fill="#3A7FD5"/>
<path d="M140.85 85.3956C141.279 83.9998 141.83 82.4654 142.539 80.8375C143.259 79.1819 144.024 77.7133 144.765 76.4318" stroke="#F00000" stroke-width="0.25" stroke-miterlimit="10"/>
<path d="M97.5278 96.0903C97.2858 93.725 97.0439 91.3597 96.7985 88.9944L94.5624 52.086C96.4835 47.2473 110.281 44.3309 110.281 44.3309L129.354 42.9005C129.354 42.9005 134.19 44.1127 137.489 52.1414C140.788 60.1736 138.095 81.7311 137.489 88.1111C136.883 94.4911 133.591 95.0418 133.591 95.0418C134.339 96.2507 134.907 97.3071 135.322 98.1245C136.499 100.445 136.731 101.439 136.776 102.371C136.8 102.89 136.762 103.323 136.727 103.607C136.727 103.607 132.556 102.194 130.995 101.661C129.434 101.124 113.262 99.2779 107.104 98.6198C100.945 97.9651 97.5289 96.1017 97.5289 96.1017L97.5278 96.0903Z" fill="#3A7FD5"/>
<path d="M142.103 30.8575C142.103 30.8575 140.366 39.9772 141.747 45.4566C142.138 47.0083 142.242 48.9653 143.654 50.6659C144.201 51.3275 144.976 52.2627 146.146 52.6333C150.601 54.0464 157.531 46.2013 157.531 46.2013L148.739 33.9332L143.606 29.0806L142.103 30.8575Z" fill="#FFCC99"/>
<path d="M117.647 35.0415L118.094 46.7832L140.719 45.4462C141.716 45.3873 142.47 44.5283 142.404 43.5343L142.377 43.1013L142.695 43.0979C143.287 43.0875 143.765 42.606 143.765 42.0138V40.0499C143.765 39.4507 143.28 38.9658 142.681 38.9658H142.401C142.404 38.8168 142.404 38.6714 142.408 38.5224C142.425 37.5872 141.709 36.8045 140.777 36.7387C133.069 36.1706 125.36 35.606 117.647 35.0415Z" fill="#F75B3C"/>
<path d="M91.5336 92.8944C91.776 92.4303 88.4009 80.0582 87.5667 77.0171L85.3513 77.7133L89.2282 93.026C89.3252 93.4105 89.5363 93.7326 89.8133 93.9751C89.8133 93.9751 91.2567 93.4243 91.5336 92.8944Z" fill="#016364"/>
<path d="M91.5059 94.3733C92.4959 94.1136 93.0913 93.1056 92.8421 92.1116L88.9167 76.5911L87.5667 77.0171C88.4009 80.0582 91.7759 92.4302 91.5336 92.8944C91.2567 93.4243 89.8132 93.975 89.8097 93.975C90.2597 94.3664 90.8863 94.5361 91.5059 94.3733Z" fill="#121D33"/>
<path d="M133.591 95.0383L128.998 94.3733L121.791 74.7103C121.791 74.7103 122.719 74.0557 123.913 74.7103C125.107 75.365 124.401 75.9122 125 75.4654C125.599 75.0186 125.772 74.7588 126.841 75.8048C127.907 76.8509 130.164 80.7336 130.164 80.7336" stroke="#008E8A" stroke-width="0.75" stroke-miterlimit="10" stroke-linecap="round"/>
<path d="M131.798 77.6129C131.798 77.6129 128.724 61.8084 128.257 57.3126C127.79 52.8168 127.288 49.0692 126.9 47.5971C126.513 46.1251 127.541 41.1617 127.326 39.281C127.111 37.4002 125.526 35.561 125.526 35.561L127.167 35.2978L128.908 35.1662L132.203 35.2978C132.203 35.2978 130.981 34.089 131.023 32.7693C131.064 31.4532 131.601 30.8505 131.601 30.8505C131.601 30.8505 132.349 29.8426 132.529 31.4012C132.709 32.9598 133.183 33.5036 133.993 34.4319C134.803 35.3601 135.267 35.7585 135.267 35.7585V40.8396C135.267 40.8396 135.516 38.5224 136.901 38.3008C138.285 38.0756 138.441 38.1206 138.036 38.8515C137.631 39.5823 137.278 39.6169 137.15 41.1582C137.088 41.9064 137.067 42.3982 137.06 42.7065C137.053 42.9766 136.887 43.2191 136.634 43.3195C135.693 43.6901 133.47 44.6773 132.657 45.9658C131.615 47.6179 135.54 55.0093 135.54 55.0093L142.816 71.4649L142.218 77.6198L136.565 78.4268H133.623L131.798 77.6129Z" fill="#FFCC99"/>
<path d="M131.798 77.6129C132.719 77.7203 135.762 77.9558 138.797 76.0473C141.262 74.4956 142.401 72.362 142.82 71.458C143.471 73.1171 144.118 74.7762 144.769 76.4318C144.769 76.4318 153.236 65.0157 156.801 61.4031C160.366 57.7941 163.932 54.895 166.41 55.3591C168.885 55.8198 169.726 57.3334 169.726 57.3334L168.383 74.5026L163.181 77.3566C163.181 77.3566 155.586 85.2086 150.006 89.1121C144.706 92.8217 142.127 94.7786 139.725 93.8989C138.302 93.3793 137.441 91.6059 135.713 88.0627C133.242 82.9954 131.798 77.6129 131.798 77.6129Z" fill="#3A7FD5"/>
<path d="M94.1955 70.173C94.1955 70.173 89.6574 64.1567 89.1936 63.8866C88.7297 63.6164 85.5867 63.8866 85.5867 63.8866L82.184 65.6184C82.184 65.6184 78.7951 68.0464 79.1655 69.3799C79.5324 70.7134 80.2213 71.2329 80.2213 71.2329C80.2213 71.2329 79.2417 71.9984 79.702 72.8123C80.1624 73.6228 80.6193 73.9449 80.6193 73.9449C80.6193 73.9449 79.882 74.8455 80.4878 75.6248C81.0936 76.4041 80.8893 75.8811 81.3947 76.4353C81.9001 76.986 81.5401 77.606 82.634 77.7133C83.7278 77.8207 91.6721 77.4847 92.4544 77.845C93.2367 78.2052 109.423 85.2675 109.423 85.2675C109.423 85.2675 120.797 91.2457 122.822 91.9696C124.847 92.6935 129.417 95.3016 131.019 93.9231C132.622 92.548 131.663 89.4793 130.898 87.8929C128.157 82.2195 125.405 77.9316 123.598 76.366C122.919 75.7806 122.327 75.3338 121.922 75.0394C117.782 74.3848 114.394 73.9311 112.047 73.6367C106.706 72.9647 103.898 72.7569 99.6128 71.7247C97.2901 71.1671 95.4209 70.5818 94.1955 70.173Z" fill="#FFCC99"/>
<path d="M142.103 30.8574C142.103 30.8574 141.899 32.5823 143.928 35.1419C145.956 37.7016 147.881 40.469 147.881 40.469C147.881 40.469 146.943 38.3389 145.728 36.6659C144.513 34.993 143.422 32.8352 143.218 32.0489C143.014 31.2627 143.066 30.5284 143.066 30.5284C143.066 30.5284 143.419 31.7441 144.613 33.9262C145.804 36.1083 147.984 40.036 149.985 41.8891C151.986 43.7387 154.153 45.1518 154.153 45.1518C154.153 45.1518 161.491 48.657 164.247 51.8747C167.006 55.0959 168.802 58.3136 168.176 62.037C167.549 65.7604 165.905 68.3477 163.814 71.2918C161.72 74.2359 158.93 76.9063 158.93 76.9063C158.93 76.9063 163.599 80.8202 166.116 82.2472C168.633 83.6742 171.758 84.554 171.758 84.554C171.758 84.554 175.033 81.5787 176.338 79.788C177.643 77.9973 178.308 76.6916 178.308 76.6916C178.308 76.6916 177.366 79.788 176.518 81.2116C175.67 82.6386 173.544 85.3402 173.544 85.3402C173.544 85.3402 178.699 86.0988 180.215 85.7663C181.731 85.4337 182.278 85.4026 182.278 85.4026C182.278 85.4026 184.31 81.7 185.4 79.1196C186.491 76.5392 187.086 74.3224 187.086 74.3224C187.027 76.314 187.179 79.272 188.28 82.6317C189.073 85.0562 190.129 86.9751 191.043 88.3674C191.043 88.3674 195.214 81.2705 195.075 73.7025C194.94 66.1379 194.12 62.6743 190.246 55.747C186.373 48.8198 172.212 26.5799 166.746 22.2053C161.287 17.8342 155.202 15.0564 150.923 17.5883C146.645 20.1202 144.776 22.3542 143.478 25.2775C142.183 28.2043 142.103 30.8574 142.103 30.8574Z" fill="#1A1B15"/>
<path d="M143.628 29.0323C143.628 29.0323 147.008 37.0157 154.762 40.9192C162.516 44.8227 175.157 44.6669 175.157 44.6669L170.997 37.0157C169.082 37.2651 166.462 37.4972 163.35 37.4314C158.182 37.324 153.939 36.5691 149.802 33.871C147.41 32.3158 144.434 30.2307 143.628 29.0323Z" fill="url(#paint6_linear_430_2780)"/>
<path d="M92.1394 11.6758C92.1394 11.6758 90.7098 14.5472 91.274 18.1632C91.8383 21.7792 94.656 22.472 94.656 22.472L104.175 24.2765L103.154 30.1543L106.366 31.0548L108.519 30.0365L108.949 34.8198L112.483 37.5249C112.483 37.5249 115.91 32.2463 117.239 30.324C118.568 28.4017 119.16 26.9816 119.313 26.1261C119.465 25.2706 118.991 24.8722 118.655 25.3814C118.319 25.8906 118.073 25.9841 118.073 25.9841C118.073 25.9841 119.146 24.0133 119.115 23.3205C119.084 22.6278 118.963 16.2963 116.523 13.9341C114.082 11.5719 111.687 13.2899 111.687 13.2899C111.687 13.2899 110.302 12.1088 106.737 12.8084C103.171 13.5046 99.6752 14.2078 97.8717 13.418C96.0683 12.6283 94.6075 11.991 94.6075 11.991L94.9848 14.038L92.1394 11.6758Z" fill="#1A1B15"/>
<path d="M126.668 37.2929L133.1 37.0366C133.1 37.0366 131.899 34.9896 131.037 34.6363C130.171 34.283 128.908 35.1662 128.908 35.1662C128.672 34.8095 128.254 34.6328 127.862 34.7159C127.388 34.8164 127.187 35.2528 127.167 35.2978C126.54 34.8995 126.211 34.9134 126.024 35.0138C126.024 35.0138 125.907 35.0796 125.522 35.5611C125.747 35.8312 125.979 36.1464 126.211 36.5066C126.388 36.7768 126.54 37.0435 126.668 37.2929Z" fill="#FFCC99"/>
<path d="M93.621 21.6927C93.621 21.6927 91.0871 34.8787 92.6413 39.2567C94.1956 43.6347 94.7148 43.2884 96.899 43.517C99.0833 43.7456 107.758 41.2725 107.758 41.2725L110.008 51.2928L111.69 36.2087C111.69 36.2087 109.79 35.2112 109.748 33.9643C109.707 32.7174 111.521 29.846 110.846 27.6882C110.171 25.5338 107.761 26.1677 107.214 27.0959C106.664 28.0242 107.003 30.4348 107.003 30.4348L103.732 29.7802C103.732 29.7802 105.511 27.6293 105.411 26.0083C105.311 24.3839 104.691 23.1231 104.691 23.1231C102.856 23.3691 100.274 23.4834 97.311 22.846C95.8952 22.5412 94.6594 22.1221 93.621 21.6927Z" fill="#FFCC99"/>
<path d="M107.121 35.173L115.795 35.651L116.886 46.5718L107.121 46.894V35.173Z" fill="#F75B3C"/>
<path d="M105.996 47.0256C108.927 47.0256 111.303 44.3429 111.303 41.0335C111.303 37.7242 108.927 35.0415 105.996 35.0415C103.065 35.0415 100.689 37.7242 100.689 41.0335C100.689 44.3429 103.065 47.0256 105.996 47.0256Z" fill="#973535"/>
<path d="M117.318 47.043C120.135 47.043 122.419 44.1264 122.419 40.8602C122.419 37.594 120.135 34.9462 117.318 34.9462C114.501 34.9462 112.218 37.594 112.218 40.8602C112.218 44.1264 114.501 47.043 117.318 47.043Z" fill="#973535"/>
<path d="M103.524 41.0405C103.524 38.5536 104.912 36.517 106.674 36.33C106.581 36.3196 106.491 36.3126 106.397 36.3126C104.404 36.3126 102.787 38.4289 102.787 41.0405C102.787 43.6521 104.404 45.7683 106.397 45.7683C106.491 45.7683 106.584 45.7579 106.674 45.751C104.912 45.564 103.524 43.5274 103.524 41.0405Z" fill="#4B1B1B"/>
<path d="M114.799 40.9781C114.799 38.4739 116.246 36.42 118.091 36.2087C117.98 36.1983 117.869 36.1879 117.758 36.1879C115.643 36.1879 113.93 38.3319 113.93 40.9781C113.93 43.6243 115.643 45.7683 117.758 45.7683C117.869 45.7683 117.98 45.7579 118.091 45.7475C116.249 45.5363 114.799 43.4823 114.799 40.9781Z" fill="#4B1B1B"/>
<path d="M110.008 41.0405C110.008 38.5536 108.537 36.517 106.674 36.3299C104.912 36.517 103.524 38.5501 103.524 41.0405C103.524 43.5273 104.912 45.5639 106.674 45.751C108.54 45.5639 110.008 43.5273 110.008 41.0405Z" fill="#7CDAEF"/>
<path d="M120.039 40.6975C119.098 40.6975 118.336 39.9355 118.336 38.9934C118.336 38.0513 119.098 37.2893 120.039 37.2893C120.098 37.2893 120.154 37.2997 120.212 37.3066C119.627 36.6936 118.897 36.2918 118.091 36.2052C116.246 36.4165 114.799 38.4704 114.799 40.9746C114.799 43.4788 116.246 45.5328 118.091 45.744C120.05 45.5328 121.587 43.4788 121.587 40.9746C121.587 40.5971 121.549 40.2334 121.483 39.8836C121.185 40.372 120.652 40.6975 120.039 40.6975Z" fill="#7CDAEF"/>
<path d="M118.34 38.9935C118.34 39.9356 119.101 40.6976 120.043 40.6976C120.655 40.6976 121.185 40.372 121.486 39.8871C121.296 38.8618 120.839 37.9648 120.216 37.3101C120.157 37.3032 120.102 37.2928 120.043 37.2928C119.101 37.2928 118.34 38.0548 118.34 38.9935Z" fill="#508D9A"/>
<path d="M118.419 38.5778C118.798 38.5778 119.105 38.2708 119.105 37.892C119.105 37.5133 118.798 37.2062 118.419 37.2062C118.041 37.2062 117.734 37.5133 117.734 37.892C117.734 38.2708 118.041 38.5778 118.419 38.5778Z" fill="white"/>
<path d="M107.121 38.5328C107.475 38.5328 107.761 38.2459 107.761 37.892C107.761 37.5381 107.475 37.2513 107.121 37.2513C106.767 37.2513 106.481 37.5381 106.481 37.892C106.481 38.2459 106.767 38.5328 107.121 38.5328Z" fill="white"/>
<path d="M83.3817 58.7361L81.8829 58.556L80.6678 59.7717L82.7621 67.6411C82.9455 68.3303 83.6725 68.7252 84.3509 68.5035L84.5863 68.4273C84.8252 68.3511 85.0398 68.2368 85.2336 68.1017L82.6859 58.9924L83.3817 58.7361Z" fill="#016364"/>
<path d="M86.1543 65.4451L84.2124 58.8365L83.3851 58.7361L82.6893 58.9924L85.237 68.1017C86.0539 67.5198 86.452 66.4634 86.1543 65.4451Z" fill="#121D33"/>
<path d="M235.239 46.2775C235.924 46.2775 236.479 45.7223 236.479 45.0375C236.479 44.3527 235.924 43.7975 235.239 43.7975C234.555 43.7975 234 44.3527 234 45.0375C234 45.7223 234.555 46.2775 235.239 46.2775Z" stroke="#FFB629" stroke-width="0.25" stroke-miterlimit="10"/>
<path d="M230.106 46.2775C230.79 46.2775 231.345 45.7223 231.345 45.0375C231.345 44.3527 230.79 43.7975 230.106 43.7975C229.422 43.7975 228.867 44.3527 228.867 45.0375C228.867 45.7223 229.422 46.2775 230.106 46.2775Z" stroke="#FFB629" stroke-width="0.25" stroke-miterlimit="10"/>
<path d="M224.478 46.2775C225.162 46.2775 225.717 45.7223 225.717 45.0375C225.717 44.3527 225.162 43.7975 224.478 43.7975C223.793 43.7975 223.238 44.3527 223.238 45.0375C223.238 45.7223 223.793 46.2775 224.478 46.2775Z" stroke="#FFB629" stroke-width="0.25" stroke-miterlimit="10"/>
<path d="M221.321 5.97129C222.005 5.97129 222.56 5.41613 222.56 4.73131C222.56 4.04649 222.005 3.49133 221.321 3.49133C220.636 3.49133 220.081 4.04649 220.081 4.73131C220.081 5.41613 220.636 5.97129 221.321 5.97129Z" stroke="#F00000" stroke-width="0.25" stroke-miterlimit="10"/>
<path d="M216.187 5.97129C216.872 5.97129 217.426 5.41613 217.426 4.73131C217.426 4.04649 216.872 3.49133 216.187 3.49133C215.503 3.49133 214.948 4.04649 214.948 4.73131C214.948 5.41613 215.503 5.97129 216.187 5.97129Z" stroke="#F00000" stroke-width="0.25" stroke-miterlimit="10"/>
<path d="M210.559 5.97129C211.243 5.97129 211.798 5.41613 211.798 4.73131C211.798 4.04649 211.243 3.49133 210.559 3.49133C209.874 3.49133 209.32 4.04649 209.32 4.73131C209.32 5.41613 209.874 5.97129 210.559 5.97129Z" stroke="#F00000" stroke-width="0.25" stroke-miterlimit="10"/>
<path d="M122.688 62.6344C122.151 62.6344 121.882 75 121.882 75L126.983 76.0753C126.983 76.0753 123.225 62.6344 122.688 62.6344Z" fill="url(#paint7_linear_430_2780)"/>
<g clip-path="url(#clip0_430_2780)">
<path d="M84.0869 59.7077C83.2021 59.9136 82.3073 59.99 81.4124 59.9435C81.9746 59.917 82.5335 59.8372 83.089 59.7077C90.8565 57.894 94.8749 46.703 92.064 34.7115C89.5757 24.0852 82.5567 16.4019 75.5876 16.0531C82.8761 15.6745 90.4539 23.5802 93.0619 34.7115C95.8729 46.703 91.8544 57.894 84.0869 59.7077Z" fill="#008F91"/>
<path d="M92.0607 34.7115C89.5757 24.0852 82.5567 16.4019 75.5877 16.0532C74.6928 16.0067 73.798 16.0831 72.9164 16.289C65.149 18.1027 61.1305 29.2937 63.9381 41.2852C66.5494 52.4164 74.1273 60.3222 81.4124 59.9435C81.9746 59.917 82.5335 59.8372 83.089 59.7077C90.8565 57.894 94.8749 46.703 92.0607 34.7115ZM82.9027 57.2562C76.3993 58.7743 69.0909 51.3036 66.5761 40.5677C64.0612 29.8318 67.2913 19.8964 73.7946 18.3784C80.298 16.8603 87.6064 24.331 90.1213 35.0669C92.6395 45.8028 89.4061 55.7382 82.9027 57.2562Z" fill="#016364"/>
</g>
<defs>
<linearGradient id="paint0_linear_430_2780" x1="69.3536" y1="19.2681" x2="69.3536" y2="113.423" gradientUnits="userSpaceOnUse">
<stop stop-color="#3A7FD5"/>
<stop offset="1" stop-color="#7EBE9F" stop-opacity="0"/>
</linearGradient>
<linearGradient id="paint1_linear_430_2780" x1="166.355" y1="0.0415955" x2="166.355" y2="151.904" gradientUnits="userSpaceOnUse">
<stop stop-color="#3A7FD5" stop-opacity="0.51"/>
<stop offset="1" stop-color="#FC7961" stop-opacity="0"/>
</linearGradient>
<linearGradient id="paint2_linear_430_2780" x1="199.2" y1="40.8602" x2="199.255" y2="140.661" gradientUnits="userSpaceOnUse">
<stop stop-color="#3A7FD5"/>
<stop offset="1" stop-color="#FEF0D5" stop-opacity="0"/>
</linearGradient>
<linearGradient id="paint3_linear_430_2780" x1="193.171" y1="95.1007" x2="194.208" y2="128.916" gradientUnits="userSpaceOnUse">
<stop stop-color="#00A5A0"/>
<stop offset="1" stop-color="#00A5A0" stop-opacity="0"/>
</linearGradient>
<linearGradient id="paint4_linear_430_2780" x1="162.957" y1="70.1613" x2="187.429" y2="103.733" gradientUnits="userSpaceOnUse">
<stop stop-color="#3A7FD5"/>
<stop offset="1" stop-color="#FFAD2C"/>
</linearGradient>
<linearGradient id="paint5_linear_430_2780" x1="161.212" y1="43.8172" x2="161.212" y2="63.4409" gradientUnits="userSpaceOnUse">
<stop stop-color="#FFAD5B"/>
<stop offset="1" stop-color="#FFCC99"/>
</linearGradient>
<linearGradient id="paint6_linear_430_2780" x1="170.474" y1="40.3226" x2="133.411" y2="24.4977" gradientUnits="userSpaceOnUse">
<stop stop-color="#1A1B15"/>
<stop offset="1" stop-color="#636363" stop-opacity="0.55"/>
</linearGradient>
<linearGradient id="paint7_linear_430_2780" x1="130.741" y1="59.4086" x2="121.864" y2="75.2588" gradientUnits="userSpaceOnUse">
<stop stop-color="#047B7B"/>
<stop offset="1" stop-color="#00CACB" stop-opacity="0"/>
</linearGradient>
<clipPath id="clip0_430_2780">
<rect width="31" height="44" fill="white" transform="translate(63 16)"/>
</clipPath>
</defs>
</svg>
