<svg width="173" height="180" viewBox="0 0 173 180" fill="none" xmlns="http://www.w3.org/2000/svg">
<g id="Group 271">
<path id="Vector" d="M86.48 165.326C126.417 165.326 158.793 131.601 158.793 90C158.793 48.3986 126.417 14.674 86.48 14.674C46.5427 14.674 14.167 48.3986 14.167 90C14.167 131.601 46.5427 165.326 86.48 165.326Z" fill="white" fill-opacity="0.3"/>
<path id="Vector_2" d="M86.48 180C134.197 180 172.88 139.706 172.88 90C172.88 40.2944 134.197 0 86.48 0C38.7626 0 0.0800171 40.2944 0.0800171 90C0.0800171 139.706 38.7626 180 86.48 180Z" fill="white" fill-opacity="0.2"/>
<path id="Vector_3" d="M157.394 33.7108V67.6565C157.394 69.1043 157.253 70.5521 156.952 71.9706C156.023 76.2652 153.459 84.1793 146.237 90.4402C135.953 99.3521 124.073 98.1195 122.026 97.8652L124.759 78.7206C126.562 77.7032 128.356 76.6761 130.159 75.6489C129.793 79.6011 131.145 82.9174 133.352 83.8369C135.916 84.9032 138.808 82.3891 140.818 80.6282C141.429 80.1 142.274 79.288 143.175 78.1532C145.983 74.6217 147.42 70.1119 147.42 65.5239V33.7108H157.394Z" fill="#F4C47F"/>
<path id="Vector_4" d="M157.394 33.711V51.6327C157.394 54.3425 155.497 56.7686 152.905 57.0327C149.928 57.336 147.42 54.9001 147.42 51.8675V37.2719C147.42 33.1045 144.687 29.3186 140.762 28.536C140.536 28.4871 140.311 28.4577 140.067 28.4284C135.972 27.9588 131.859 30.5023 130.009 34.7969H117.969C119.462 24.1925 128.271 16.4251 138.17 16.6306C147.42 16.8262 155.534 23.9284 157.394 33.711Z" fill="#F5D29C"/>
<path id="Vector_5" d="M90.7155 109.321C69.7541 106.807 51.2063 84.9229 49.9009 56.2501C49.7882 53.824 51.6383 51.7892 53.9673 51.7892H132.244C132.178 49.0501 132.037 47.0447 131.953 46.0762C102.07 46.0762 72.1959 46.0762 42.3127 46.0762C41.984 48.4729 36.5371 92.5142 61.2925 112.833C64.3541 115.347 73.7172 123.036 86.7712 122.547C99.6278 122.067 108.371 113.938 112.222 110.358C115.386 107.413 118.054 104.146 120.308 100.692C111.461 107.403 100.633 110.514 90.7155 109.321Z" fill="#F3B65F"/>
<path id="Vector_6" d="M102.248 129.962H71.191C68.1576 129.962 65.6877 127.399 65.6877 124.229C65.6877 121.069 68.1482 118.497 71.191 118.497H102.248C105.281 118.497 107.751 121.06 107.751 124.229C107.751 127.399 105.281 129.962 102.248 129.962Z" fill="#F4C47F"/>
<path id="Vector_7" d="M102.248 129.962H82.3291C79.2957 129.962 76.8257 127.399 76.8257 124.229C76.8257 121.069 79.2863 118.497 82.3291 118.497H102.248C105.281 118.497 107.751 121.06 107.751 124.229C107.751 127.399 105.281 129.962 102.248 129.962Z" fill="#F5D29C"/>
<path id="Vector_8" d="M98.5384 129.962H74.9099C72.8157 129.962 71.1158 131.733 71.1158 133.914C71.1158 136.096 72.8157 137.866 74.9099 137.866H98.5384C100.633 137.866 102.333 136.096 102.333 133.914C102.323 131.733 100.633 129.962 98.5384 129.962Z" fill="#F3B65F"/>
<path id="Vector_9" d="M16.0452 34.7966V68.7422C16.0452 70.19 16.1861 71.6379 16.4866 73.0564C17.4164 77.3509 19.9802 85.265 27.2021 91.5259C37.4856 100.438 49.3656 99.2053 51.4129 98.9509L48.68 79.8064C46.8769 78.789 45.0831 77.7618 43.28 76.7346C43.6463 80.6868 42.2939 84.0031 40.087 84.9227C37.5231 85.989 34.6306 83.4748 32.6209 81.714C32.0104 81.1857 31.1652 80.3835 30.2637 79.239C27.4557 75.7074 26.0188 71.1977 26.0188 66.6096V34.7966H16.0452Z" fill="#F3B65F"/>
<path id="Vector_10" d="M76.5253 137.866C76.4032 145.888 76.2717 153.92 76.1496 161.941C79.2581 162.431 82.9301 162.793 87.0341 162.773C90.8939 162.753 94.3593 162.411 97.327 161.941C97.2988 153.92 97.28 145.898 97.2519 137.866H76.5253Z" fill="url(#paint0_linear_430_2614)"/>
<path id="Vector_11" d="M16.0452 34.7967V52.7185C16.0452 55.4283 17.9423 57.8543 20.5343 58.1185C23.5113 58.4217 26.0188 55.9859 26.0188 52.9533V38.3478C26.0188 34.1804 28.7517 30.3946 32.6772 29.612C32.9026 29.5631 33.128 29.5337 33.3722 29.5044C37.4668 29.0348 41.5802 31.5783 43.4303 35.8728H55.4699C53.9767 25.2783 45.1677 17.5109 35.2692 17.7163C26.0188 17.912 17.9047 25.0141 16.0452 34.7967Z" fill="#F4C47F"/>
<path id="Vector_12" d="M132.234 51.7891H53.9673C51.6383 51.7891 49.7882 53.8238 49.9009 56.2499C51.2063 84.9228 69.7541 106.806 90.7155 109.321C100.633 110.514 111.451 107.403 120.298 100.683C131.408 83.7293 132.469 62.2858 132.234 51.7891Z" fill="#F4C47F"/>
<path id="Vector_13" d="M130.704 46.0761H42.9325C39.9367 46.0761 37.5137 43.5522 37.5137 40.4315C37.5137 37.3109 39.9367 34.787 42.9325 34.787H130.704C133.699 34.787 136.122 37.3109 136.122 40.4315C136.122 43.5522 133.699 46.0761 130.704 46.0761Z" fill="#F4C47F"/>
<path id="Vector_14" d="M130.704 46.0761H94.1715C91.1757 46.0761 88.7527 43.5522 88.7527 40.4315C88.7527 37.3109 91.1757 34.787 94.1715 34.787H130.704C133.7 34.787 136.122 37.3109 136.122 40.4315C136.122 43.5522 133.7 46.0761 130.704 46.0761Z" fill="#F5D29C"/>
<path id="Vector_15" d="M124.618 55.0369L89.3914 91.7315C87.654 93.5413 84.846 93.5413 83.118 91.7315L67.2467 75.1891C64.5044 72.3326 64.5044 67.7054 67.2467 64.8489C69.989 61.9924 74.431 61.9924 77.1733 64.8489L83.118 71.0413C84.8554 72.8511 87.6634 72.8511 89.3914 71.0413L114.692 44.6967C117.434 41.8402 121.876 41.8402 124.618 44.6967C127.36 47.5532 127.36 52.1804 124.618 55.0369Z" fill="white"/>
<g id="Group">
<g id="Group_2">
<path id="Vector_16" d="M116.861 146.837C115.199 148.089 112.87 147.698 111.677 145.966L108.014 140.674C106.812 138.942 107.188 136.516 108.85 135.274C110.512 134.022 112.841 134.413 114.034 136.144L117.697 141.437C118.899 143.168 118.523 145.585 116.861 146.837Z" fill="#F3B65F"/>
<path id="Vector_17" d="M130.657 133.493C129.257 135.059 126.909 135.147 125.407 133.699L120.815 129.257C119.312 127.8 119.227 125.354 120.617 123.789C122.017 122.224 124.364 122.136 125.867 123.584L130.459 128.025C131.971 129.482 132.056 131.928 130.657 133.493Z" fill="#F3B65F"/>
<path id="Vector_18" d="M141.475 113.097C141.475 115.239 139.813 116.971 137.756 116.971H131.492C129.436 116.971 127.773 115.239 127.773 113.097C127.773 110.954 129.436 109.223 131.492 109.223H137.756C139.813 109.233 141.475 110.964 141.475 113.097Z" fill="#F3B65F"/>
</g>
<g id="Group_3">
<path id="Vector_19" d="M56.5874 147.081C58.2496 148.334 60.5787 147.942 61.7714 146.211L65.434 140.918C66.6361 139.187 66.2604 136.761 64.5982 135.518C62.9359 134.266 60.6068 134.658 59.4142 136.389L55.7515 141.681C54.5401 143.413 54.9157 145.829 56.5874 147.081Z" fill="#F3B65F"/>
<path id="Vector_20" d="M42.7823 133.748C44.1816 135.313 46.5294 135.401 48.032 133.953L52.6244 129.512C54.127 128.054 54.2115 125.609 52.8216 124.043C51.4223 122.478 49.0744 122.39 47.5718 123.838L42.9795 128.279C41.4769 129.727 41.383 132.173 42.7823 133.748Z" fill="#F3B65F"/>
<path id="Vector_21" d="M31.9634 113.341C31.9634 115.484 33.6257 117.215 35.6824 117.215H41.9464C44.0031 117.215 45.6653 115.484 45.6653 113.341C45.6653 111.199 44.0031 109.467 41.9464 109.467H35.6824C33.6257 109.477 31.9634 111.209 31.9634 113.341Z" fill="#F3B65F"/>
</g>
</g>
</g>
<defs>
<linearGradient id="paint0_linear_430_2614" x1="86.7378" y1="155.291" x2="86.7538" y2="129.546" gradientUnits="userSpaceOnUse">
<stop offset="0.00237772" stop-color="#F5D29C"/>
<stop offset="1" stop-color="#F3B65F"/>
</linearGradient>
</defs>
</svg>
